<?xml version="1.0" standalone="no"?>
<!DOCTYPE svg PUBLIC "-//W3C//DTD SVG 20010904//EN"
 "http://www.w3.org/TR/2001/REC-SVG-20010904/DTD/svg10.dtd">
<svg version="1.0" xmlns="http://www.w3.org/2000/svg"
 width="450.000000pt" height="450.000000pt" viewBox="0 0 450.000000 450.000000"
 preserveAspectRatio="xMidYMid meet">

<g transform="translate(0.000000,450.000000) scale(0.100000,-0.100000)"
fill="#000000" stroke="none">
<path d="M0 2250 l0 -2250 2250 0 2250 0 0 2250 0 2250 -2250 0 -2250 0 0
-2250z m2565 1660 c101 -20 306 -82 330 -100 6 -4 21 -10 35 -13 38 -9 245
-131 330 -194 106 -79 284 -262 360 -368 154 -217 265 -495 299 -748 16 -117
14 -389 -4 -493 -30 -176 -72 -315 -137 -454 -35 -74 -122 -226 -138 -240 -3
-3 -14 -18 -24 -35 -62 -99 -235 -271 -381 -381 -195 -147 -460 -255 -730
-299 -118 -19 -386 -19 -513 0 -662 101 -1211 595 -1377 1240 -40 152 -49 232
-49 430 0 216 8 280 64 475 114 398 396 759 761 975 185 109 414 189 629 220
144 20 398 13 545 -15z"/>
</g>
</svg>
